<svg xmlns="http://www.w3.org/2000/svg" viewBox="0 0 400 400" role="img" aria-labelledby="title desc">
  <title id="title">Profile placeholder</title>
  <desc id="desc">Stylized portrait placeholder for student profile photo.</desc>
  <defs>
    <linearGradient id="bg" x1="0" x2="1" y1="0" y2="1">
      <stop offset="0%" stop-color="#f8e7d4"/>
      <stop offset="100%" stop-color="#f1d4b5"/>
    </linearGradient>
    <linearGradient id="shirt" x1="0" x2="1" y1="0" y2="1">
      <stop offset="0%" stop-color="#f6f7fb"/>
      <stop offset="100%" stop-color="#e7ecf4"/>
    </linearGradient>
  </defs>
  <rect width="400" height="400" fill="url(#bg)"/>
  <circle cx="200" cy="120" r="74" fill="#d9a98b"/>
  <path d="M130 108c18-42 120-49 146 0-10-8-20-14-34-16-18-3-26 3-42 5-18 2-40 6-70 11z" fill="#1b1b1b"/>
  <ellipse cx="170" cy="120" rx="12" ry="16" fill="#1b1b1b"/>
  <ellipse cx="230" cy="120" rx="12" ry="16" fill="#1b1b1b"/>
  <circle cx="172" cy="119" r="4" fill="#fdfdfd"/>
  <circle cx="232" cy="119" r="4" fill="#fdfdfd"/>
  <path d="M165 146c17 14 51 14 70 0" stroke="#9a5d46" stroke-width="6" stroke-linecap="round" fill="none"/>
  <path d="M106 256c24-52 66-74 94-74s76 24 94 74v94H106z" fill="url(#shirt)"/>
  <path d="M120 258h55l18 85H99z" fill="#f7f9fc"/>
  <path d="M280 258h-55l-18 85h94z" fill="#eef3f9"/>
  <rect x="144" y="276" width="112" height="12" rx="6" fill="#dfe7ef"/>
  <rect x="149" y="300" width="102" height="14" rx="7" fill="#dfe7ef"/>
  <rect x="117" y="220" width="24" height="40" rx="12" fill="#c7d1db"/>
  <rect x="259" y="220" width="24" height="40" rx="12" fill="#c7d1db"/>
</svg>
